# xmcd
#
# Track frame offsets:
#	150
#	15335
#	31145
#	44827
#	66450
#	84030
#	101372
#	118142
#	145337
#	163797
#	183270
#	205585
#
# Disc length: 3046 seconds
#
# Revision: 1
# Processed by: cddbd v1.5.2PL0 Copyright (c) Steve Scherf et al.
# Submitted via: audiograbber 1.83.01
#
DISCID=9a0be40c
DTITLE=Kenny Butterill - No One You Know
DYEAR=2000
DGENRE=Country
TTITLE0=How Far Can We Go
TTITLE1=She Knows How To Love Me 
TTITLE2=Back To Canada
TTITLE3=Good Ol' Thumper
TTITLE4=Don't Worry Now My Son
TTITLE5=Balsam Lake
TTITLE6=Our Liberty
TTITLE7=Braking The Glass Ceiling
TTITLE8=Was It Love In Your Eyes
TTITLE9=You're The Dream
TTITLE10=Where's The Bride
TTITLE11=Princess Diana
EXTD=
EXTT0=
EXTT1=
EXTT2=
EXTT3=
EXTT4=
EXTT5=
EXTT6=
EXTT7=
EXTT8=
EXTT9=
EXTT10=
EXTT11=
PLAYORDER=
